<?xml version="1.0" encoding="utf-8"?>
<!-- Generator: Adobe Illustrator 15.0.0, SVG Export Plug-In . SVG Version: 6.00 Build 0)  -->
<!DOCTYPE svg PUBLIC "-//W3C//DTD SVG 1.1//EN" "http://www.w3.org/Graphics/SVG/1.1/DTD/svg11.dtd">
<svg version="1.1" id="Layer_1" xmlns="http://www.w3.org/2000/svg" xmlns:xlink="http://www.w3.org/1999/xlink" x="0px" y="0px"
	 width="92px" height="98.25px" viewBox="0 0 92 98.25" enable-background="new 0 0 92 98.25" xml:space="preserve">
<g id="_x23_a2cbc7ff">
	<path fill="#A2CBC7" d="M22.098,7.59c0.141-3.02,2.75-5.74,5.85-5.57c18.7-0.05,37.4,0.02,56.1-0.03
		c2.57-0.17,5.291,1.25,6.181,3.75c1.06,2.17,0.7,4.64,0.761,6.959c-0.041,25.351,0,50.701-0.021,76.051
		c0.18,3.529-2.181,7.4-6.021,7.42c-18.631,0.189-37.271,0.01-55.9,0.09c-2.84,0.18-6.1-1.38-6.61-4.43
		c-0.86-4.68-0.25-9.48-0.41-14.211c15.88-0.279,31.771-0.039,47.65-0.119c0.021-6.312-0.021-12.631,0.04-18.94
		c-15.52-0.06-31.03-0.01-46.551-0.021c0.011-6.271-0.01-12.539,0.021-18.819c15.5-0.04,30.99,0.021,46.49-0.021
		c0.01-6.33,0-12.67,0.01-19c-15.89-0.06-31.778,0.121-47.669-0.09C22.078,16.27,21.867,11.93,22.098,7.59z"/>
</g>
<g id="_x23_4d443fff">
	<path fill="#4D443F" d="M6.938,20.72c5-0.569,10.061-0.22,15.08-0.11c15.891,0.211,31.779,0.03,47.67,0.09
		c-0.01,6.33,0,12.67-0.01,19c-15.5,0.041-30.99-0.02-46.49,0.021c-0.029,6.28-0.01,12.55-0.02,18.819
		c15.52,0.011,31.029-0.039,46.55,0.021c-0.06,6.31-0.021,12.63-0.04,18.94c-15.881,0.08-31.77-0.16-47.65,0.119
		c-4.96,0.149-9.96,0.431-14.9-0.141c-2.31-0.35-3.759-2.3-4.879-4.158c0.22-16.08,0.21-32.19,0-48.271
		C3.377,23.24,4.508,20.89,6.938,20.72z"/>
</g>
</svg>
